<svg width="19" height="18" viewBox="0 0 19 18" fill="none" xmlns="http://www.w3.org/2000/svg">
<path d="M13.6569 1.66848C13.871 1.45654 14.1252 1.28843 14.4049 1.17373C14.6846 1.05903 14.9844 1 15.2872 1C15.59 1 15.8898 1.05903 16.1695 1.17373C16.4492 1.28843 16.7034 1.45654 16.9175 1.66848C17.1316 1.88041 17.3014 2.13201 17.4173 2.40891C17.5331 2.68582 17.5928 2.9826 17.5928 3.28232C17.5928 3.58204 17.5331 3.87882 17.4173 4.15573C17.3014 4.43263 17.1316 4.68423 16.9175 4.89617L5.913 15.7896L1.42969 17L2.65241 12.5619L13.6569 1.66848Z" fill="#FF007D" stroke="#FF007D" stroke-linecap="round" stroke-linejoin="round"/>
</svg>
